<svg viewBox="0 0 146.56 50.54" xmlns="http://www.w3.org/2000/svg"><g fill="#231f20" opacity=".1"><path d="m19.79 49.4c-1.18 0-2.06 0-3-.11-1.19-.07-2.53-.15-4.83-.15s-3.65.08-4.84.15c-.93.06-1.81.11-3 .11-.94 0-2 0-3.33-.11a.83.83 0 0 1 -.67-.39.92.92 0 0 1 0-.92.93.93 0 0 0 0-.1 1 1 0 0 1 -.08-.91.88.88 0 0 1 .64-.44 6.22 6.22 0 0 1 1.13-.12 5.15 5.15 0 0 1 1 .12 6.35 6.35 0 0 0 1.38.14 5.6 5.6 0 0 1 2 .46 4.12 4.12 0 0 0 .62.21s0-.1 0-.19a29.31 29.31 0 0 0 .65-10.45 67.77 67.77 0 0 1 0-14.52 29.31 29.31 0 0 0 -.53-10.41v-.18a5.38 5.38 0 0 0 -.62.2 5.39 5.39 0 0 1 -2 .47 6.35 6.35 0 0 0 -1.38.14 6 6 0 0 1 -1 .12 6.22 6.22 0 0 1 -1.21-.12.85.85 0 0 1 -.62-.4 1 1 0 0 1 .08-.91v-.05-.07a.92.92 0 0 1 0-.93.8.8 0 0 1 .66-.4c.84-.08 1.56-.11 2.18-.11a18.6 18.6 0 0 1 2 .11 29.63 29.63 0 0 0 2.98.11 8.63 8.63 0 0 0 2.92-.54 6.12 6.12 0 0 1 2-.41 5.07 5.07 0 0 1 2.69.91c1.68 1.06 1.13 2.33.72 3.27a4.6 4.6 0 0 0 -.5 1.89v1.09a6.44 6.44 0 0 1 .78-1.17c.12-.17.26-.34.38-.52s.23-.35.34-.53a7.26 7.26 0 0 1 .83-1.18 8 8 0 0 1 1.29-1.06l.5-.36.5-.4a7.16 7.16 0 0 1 1.34-1 7.94 7.94 0 0 1 2.21-.65l.8-.17a9.77 9.77 0 0 1 2.2-.3 6 6 0 0 1 1.42.21l.51.1.47.07a5.08 5.08 0 0 1 1.46.34 5 5 0 0 1 1 .65c.12.09.24.19.37.27a3.26 3.26 0 0 0 .4.24 4.59 4.59 0 0 1 1 .71 4 4 0 0 1 .62.95 3 3 0 0 0 .19.36 4 4 0 0 0 .23.34 4.07 4.07 0 0 1 .56 1 3.91 3.91 0 0 1 .16 1v.44s.07.3.11.45a3.87 3.87 0 0 1 .17 1 7.29 7.29 0 0 1 -.34 2l-.07.27a3.94 3.94 0 0 1 -1.26 2.31 4.41 4.41 0 0 1 -1.45.62l-.31.09-.32.1a4.48 4.48 0 0 1 -1.5.32 6.83 6.83 0 0 1 -2.83-.64 2.81 2.81 0 0 1 -1.87-2.64 1.66 1.66 0 0 1 .16-.65v-.1s0-.08 0-.13a1.25 1.25 0 0 1 0-.68 1.28 1.28 0 0 1 .32-.47 1.26 1.26 0 0 1 .1-.56 1.4 1.4 0 0 1 .3-.41 1.87 1.87 0 0 1 0-.58c0-.11.09-.23.15-.37a.93.93 0 0 0 .12-.34 1.59 1.59 0 0 0 0-.23 2.51 2.51 0 0 1 -.08-.61c0-.91-.14-1.44-.46-1.71a3.22 3.22 0 0 0 -1.75-.34h-.5a2.56 2.56 0 0 0 -.86.12 3.25 3.25 0 0 0 -.73.47c-.16.12-.32.24-.49.35l-.38.25a5.9 5.9 0 0 0 -1.23.94 6.76 6.76 0 0 0 -.73 1c-.13.22-.27.45-.42.67l-.37.54a10.17 10.17 0 0 0 -1 1.67 11 11 0 0 0 -.52 1.56c-.09.32-.18.64-.29 1l-.16.5a14 14 0 0 0 -.68 2.62 14 14 0 0 0 -.06 2.27v1c0 2.56 0 3.86-.08 5.11s-.08 2.48-.08 5.02a21.79 21.79 0 0 1 -.43 4.3 8.32 8.32 0 0 0 .51 5.61c.12.32.21.37.21.37a2.57 2.57 0 0 0 .79-.23 5.72 5.72 0 0 1 2.13-.49 8.34 8.34 0 0 0 1.59-.14 6.16 6.16 0 0 1 1.2-.14 8.83 8.83 0 0 1 1.25.11.83.83 0 0 1 .62.44.93.93 0 0 1 -.07.91v.06.07a1 1 0 0 1 0 .94.85.85 0 0 1 -.68.39c-1.3.07-2.39.11-3.33.11z"/><path d="m50.45 50.54a17.47 17.47 0 0 1 -3.71-.54l-.74-.13a18.22 18.22 0 0 1 -3.54-1 19.79 19.79 0 0 1 -3.08-1.78l-.9-.59a19.45 19.45 0 0 1 -2.87-2.14 19.5 19.5 0 0 1 -2.3-2.81l-.61-.84a20.47 20.47 0 0 1 -1.93-3 18.61 18.61 0 0 1 -1.21-3.94l-.06-.25a18.65 18.65 0 0 1 -.58-4 18.66 18.66 0 0 1 .65-4.3 17.45 17.45 0 0 1 1.43-4.22 19.76 19.76 0 0 1 2-3l.61-.82a20 20 0 0 1 2.39-2.81 19.08 19.08 0 0 1 2.85-2l1-.61a19.14 19.14 0 0 1 3.05-1.76 17.23 17.23 0 0 1 3.18-.88l1-.2a16.21 16.21 0 0 1 3.42-.49 16.31 16.31 0 0 1 3.42.49l.94.2a17 17 0 0 1 3.14.88 18.53 18.53 0 0 1 3.06 1.71l1 .62a19.53 19.53 0 0 1 2.85 2 19.27 19.27 0 0 1 2.4 2.82l.62.82a19.76 19.76 0 0 1 2 3 17.6 17.6 0 0 1 1.35 4.15 18.66 18.66 0 0 1 .65 4.3 18.22 18.22 0 0 1 -.59 4v.14a18.53 18.53 0 0 1 -1.23 4 19.71 19.71 0 0 1 -1.92 3l-.63.87a18.22 18.22 0 0 1 -2.29 2.8 18.77 18.77 0 0 1 -2.87 2.14l-.9.59a19.79 19.79 0 0 1 -3.08 1.78 18.22 18.22 0 0 1 -3.54 1l-.71.15a17.37 17.37 0 0 1 -3.72.65zm-1.56-39.3a5.69 5.69 0 0 0 -1 .07 8.79 8.79 0 0 0 -2 .7l-.59.27a6.22 6.22 0 0 0 -1.76 1 7.23 7.23 0 0 0 -1.1 1.46l-.41.65a11.32 11.32 0 0 0 -1.28 2.36 12.07 12.07 0 0 0 -.45 2c-.06.31-.11.63-.18 1l-.15.75a26.35 26.35 0 0 0 -.57 3.5c-.06.85 0 1.76 0 2.72v1.73s0 1.18 0 1.74a31.63 31.63 0 0 0 0 3.26 27.23 27.23 0 0 0 .93 4.84c.09.34.16.67.24 1a12.86 12.86 0 0 0 .57 2 10.66 10.66 0 0 0 1.6 2.46l.32.41a5.91 5.91 0 0 0 1.11 1.2 5.44 5.44 0 0 0 1.74.71h.18c.25.07.49.16.73.24a8.67 8.67 0 0 0 1.38.38 5.68 5.68 0 0 0 .59 0h.76.86.85.76a5.68 5.68 0 0 0 .59 0 8.39 8.39 0 0 0 1.39-.33c.24-.08.48-.17.73-.24h.19a5.62 5.62 0 0 0 1.73-.71 5.91 5.91 0 0 0 1.11-1.2l.3-.39a10.63 10.63 0 0 0 1.62-2.48 12.68 12.68 0 0 0 .57-2c.08-.32.15-.65.24-1a28 28 0 0 0 .93-4.84c.08-1 .06-2.11 0-3.28 0-.56 0-1.13 0-1.72s0-1.16 0-1.72c0-1 0-1.88 0-2.73a26.35 26.35 0 0 0 -.56-3.58l-.15-.75c-.07-.33-.12-.65-.18-1a11.91 11.91 0 0 0 -.46-2 11.16 11.16 0 0 0 -1.27-2.37l-.41-.64a6.9 6.9 0 0 0 -1.11-1.46 6.43 6.43 0 0 0 -1.75-1l-.53-.25a8.79 8.79 0 0 0 -2-.7 5.76 5.76 0 0 0 -1-.07h-.73-.82-.83z"/><path d="m84.66 50.54a6.79 6.79 0 0 1 -1.25-.15c-.21 0-.42-.09-.63-.11s-.45 0-.67 0a6.51 6.51 0 0 1 -1.23-.13 5.76 5.76 0 0 1 -.92-.33 4.79 4.79 0 0 0 -.59-.23 5.09 5.09 0 0 0 -.66-.12 5 5 0 0 1 -.91-.18 4.13 4.13 0 0 1 -.76-.35 3.31 3.31 0 0 0 -.47-.22 2.68 2.68 0 0 0 -.55-.11 4.45 4.45 0 0 1 -.77-.17 3.57 3.57 0 0 1 -.56-.26 1.74 1.74 0 0 0 -.36-.16h-.12c-.12 0-.23 0-.35 0a4 4 0 0 1 -.49 0 2.32 2.32 0 0 1 -.51-.07h-.14s0 .07-.06.11-.12.13-.18.18a1.48 1.48 0 0 1 -.43.26 1.75 1.75 0 0 1 -.16.4l-.15.25-.37.09h-.17a1 1 0 0 1 -.48-.13.75.75 0 0 1 -.45.14.77.77 0 0 1 -.77-.74 15.53 15.53 0 0 1 0-3.4 17.86 17.86 0 0 0 .12-2.86c0-1.12-.1-1.81-.16-2.43a19.33 19.33 0 0 1 0-3.87.78.78 0 0 1 .77-.75 1 1 0 0 1 .47.13.93.93 0 0 1 .47-.14.84.84 0 0 1 .62.27l.12.12v.17c.09.31.16.63.23.95a10.64 10.64 0 0 0 .41 1.3 10.83 10.83 0 0 0 .53 1.09 10.2 10.2 0 0 1 .48.93l.3.7a7.35 7.35 0 0 0 .66 1.38 7.82 7.82 0 0 0 1 1.14c.19.19.37.38.55.58s.26.29.38.44a8.44 8.44 0 0 0 1.28 1.26 8.23 8.23 0 0 0 1.48.79q.33.13.66.3l.17.08a9.51 9.51 0 0 0 2.42.91 7.64 7.64 0 0 0 1.39.1h1.71a6.84 6.84 0 0 0 2.22-.24 7.34 7.34 0 0 0 2-1.27 4.66 4.66 0 0 0 1.74-2.19 9.14 9.14 0 0 0 .26-2.82v-.51a6.78 6.78 0 0 0 -.15-2 3.49 3.49 0 0 0 -1.28-1.67l-.51-.42a5.32 5.32 0 0 0 -2.55-1.39l-.76-.24c-.89-.31-1.33-.5-1.76-.69a16.14 16.14 0 0 0 -1.65-.66 16.92 16.92 0 0 0 -1.7-.5c-.45-.12-.92-.23-1.81-.54a5.28 5.28 0 0 1 -.83-.39 4.2 4.2 0 0 0 -.6-.3 4.91 4.91 0 0 0 -.58-.16 5.56 5.56 0 0 1 -.94-.29 5.16 5.16 0 0 1 -1.09-.68c-.15-.11-.3-.23-.46-.33a5.5 5.5 0 0 0 -.48-.28 4.4 4.4 0 0 1 -2-1.91c-.1-.15-.19-.3-.3-.44s-.21-.29-.32-.43a5.94 5.94 0 0 1 -.81-1.26 7.72 7.72 0 0 1 -.5-2.08l-.07-.5c0-.19-.07-.39-.11-.6a10.18 10.18 0 0 1 -.25-1.91 8.12 8.12 0 0 1 .3-2l.12-.53c0-.18.06-.35.1-.52a8.25 8.25 0 0 1 .53-1.95 8.08 8.08 0 0 1 1-1.55c.12-.16.25-.32.36-.48l.34-.5a8.43 8.43 0 0 1 1.14-1.47 8.54 8.54 0 0 1 1.62-1.12l.5-.29.5-.32a8.81 8.81 0 0 1 1.69-.92 9.54 9.54 0 0 1 2.06-.46l.63-.1.65-.12a10.35 10.35 0 0 1 2-.26 5.25 5.25 0 0 1 1.19.17c.19 0 .36.07.53.08s.43 0 .63 0a4 4 0 0 1 1.09.1 3.27 3.27 0 0 1 .7.3l.32.15a2 2 0 0 0 .42.06 2.6 2.6 0 0 1 .7.13 2 2 0 0 1 .59.33.72.72 0 0 0 .19.12 2.43 2.43 0 0 0 .26.05 2 2 0 0 1 .61.14 2.93 2.93 0 0 1 .39.21 1.31 1.31 0 0 0 .24.14.86.86 0 0 0 .21 0 3.31 3.31 0 0 1 .54-.06h.39.19s0-.15.1-.23l.11-.19.13-.2.34-.13h.23a1 1 0 0 1 .46.12 1 1 0 0 1 .46-.12.78.78 0 0 1 .78.73 11.42 11.42 0 0 1 0 3 17.24 17.24 0 0 0 -.13 2.18 16.92 16.92 0 0 0 .13 2.17 11.52 11.52 0 0 1 0 3 .78.78 0 0 1 -.78.73 1 1 0 0 1 -.46-.13.87.87 0 0 1 -.47.14.84.84 0 0 1 -.59-.24l-.17-.16-.06-.18q-.14-.46-.24-1a6.57 6.57 0 0 0 -.28-1 6.49 6.49 0 0 0 -.45-.92c-.16-.28-.31-.56-.44-.85s-.2-.51-.29-.76a6.2 6.2 0 0 0 -.38-.93 5.45 5.45 0 0 0 -.66-.83c-.17-.19-.33-.37-.48-.56s-.22-.3-.33-.45a4.14 4.14 0 0 0 -.69-.82 3.94 3.94 0 0 0 -.94-.49c-.17-.08-.35-.15-.52-.24l-.38-.18a4.43 4.43 0 0 0 -1.27-.52 3 3 0 0 0 -.58 0h-.58-.7-.67a11.1 11.1 0 0 0 -2.67.22 7.23 7.23 0 0 0 -2.79 1.51 5.62 5.62 0 0 0 -1.74 1.91 6.41 6.41 0 0 0 -.36 2.58 5.55 5.55 0 0 0 .25 2.16 4 4 0 0 0 1.43 1.52l.17.12a12.34 12.34 0 0 0 2.51 1.51 14.33 14.33 0 0 0 1.85.61c.39.11.79.22 1.2.35a14.76 14.76 0 0 1 1.68.64 14.09 14.09 0 0 0 1.52.58 15.81 15.81 0 0 0 1.58.44 12.85 12.85 0 0 1 1.72.48 19.39 19.39 0 0 1 3.33 1.59l.36.2a16.87 16.87 0 0 1 3.42 2.31 8.79 8.79 0 0 1 2.09 3.34 10.4 10.4 0 0 1 .83 3.81 9.36 9.36 0 0 1 -.28 1.94c0 .19-.09.39-.13.59s-.08.4-.11.6a9.58 9.58 0 0 1 -.47 1.88 9 9 0 0 1 -1.07 1.79l-.3.44c-.11.14-.2.3-.3.45a9.15 9.15 0 0 1 -1.27 1.64 9.77 9.77 0 0 1 -1.79 1.25l-.51.32c-.19.11-.37.23-.55.35a11.16 11.16 0 0 1 -1.84 1 12 12 0 0 1 -2.62.62l-.52.09-.64.11a13.28 13.28 0 0 1 -2.52.32z"/><path d="m110.79 50.54a5.25 5.25 0 0 1 -1.11-.14l-.53-.09h-.63a3.92 3.92 0 0 1 -1.08-.1 3.16 3.16 0 0 1 -.71-.3 2.14 2.14 0 0 0 -.32-.15 2 2 0 0 0 -.42-.06 2.67 2.67 0 0 1 -.7-.13 2 2 0 0 1 -.59-.33l-.18-.12h-.26a2.07 2.07 0 0 1 -.63-.14 2.4 2.4 0 0 1 -.37-.22 2.12 2.12 0 0 0 -.24-.13.93.93 0 0 0 -.22 0 3.31 3.31 0 0 1 -.54.06h-.39-.19s-.05.14-.1.23l-.24.39-.34.13h-.23a.83.83 0 0 1 -.45-.13 1 1 0 0 1 -.47.13.78.78 0 0 1 -.77-.73 11.63 11.63 0 0 1 0-3 16.92 16.92 0 0 0 .13-2.17 17.24 17.24 0 0 0 -.13-2.18 11.54 11.54 0 0 1 0-3 .78.78 0 0 1 .77-.73 1 1 0 0 1 .47.13.82.82 0 0 1 .47-.14.86.86 0 0 1 .59.24l.13.12.06.18a9.62 9.62 0 0 1 .24 1 8 8 0 0 0 .28 1 7.75 7.75 0 0 0 .45.92c.16.28.31.56.44.85s.2.51.29.77a4.06 4.06 0 0 0 1 1.76c.16.18.32.36.47.55s.23.3.34.45a4.06 4.06 0 0 0 .68.82 4.59 4.59 0 0 0 .94.49c.18.08.35.15.52.24l.39.19a4.54 4.54 0 0 0 1.27.52 3.13 3.13 0 0 0 .58 0h.59.69.66a11 11 0 0 0 2.67-.22 7.35 7.35 0 0 0 2.8-1.52 5.66 5.66 0 0 0 1.71-1.92 6.54 6.54 0 0 0 .35-2.58 5.52 5.52 0 0 0 -.25-2.15 4 4 0 0 0 -1.43-1.52l-.17-.12a12.34 12.34 0 0 0 -2.46-1.51 13.68 13.68 0 0 0 -1.84-.61c-.39-.11-.8-.22-1.21-.35a14.41 14.41 0 0 1 -1.67-.64 14.45 14.45 0 0 0 -1.53-.58 12.9 12.9 0 0 0 -1.57-.44 17 17 0 0 1 -1.73-.48 19.13 19.13 0 0 1 -3.34-1.6l-.35-.19a16.87 16.87 0 0 1 -3.38-2.29 8.75 8.75 0 0 1 -2.09-3.35 10.29 10.29 0 0 1 -.83-3.8 8.64 8.64 0 0 1 .29-1.94c0-.2.09-.39.12-.59s.08-.39.11-.59a9.5 9.5 0 0 1 .47-1.89 9 9 0 0 1 1.07-1.79l.31-.44c.1-.14.2-.29.29-.44a9.28 9.28 0 0 1 1.26-1.65 9.71 9.71 0 0 1 1.78-1.25l.52-.32.54-.35a10.58 10.58 0 0 1 1.85-1 11.68 11.68 0 0 1 2.61-.62l.52-.09.63-.11a13.48 13.48 0 0 1 2.53-.3 6.69 6.69 0 0 1 1.25.15l.63.11h.67a6.7 6.7 0 0 1 1.24.13 6.14 6.14 0 0 1 .92.33 4.12 4.12 0 0 0 .58.23 5.09 5.09 0 0 0 .66.12 5.15 5.15 0 0 1 .92.18 4.46 4.46 0 0 1 .76.35 2.77 2.77 0 0 0 .46.22 2.64 2.64 0 0 0 .56.11 4.34 4.34 0 0 1 .76.17 4.75 4.75 0 0 1 .56.25 1.41 1.41 0 0 0 .36.17h.12.35a4.22 4.22 0 0 1 .49 0 2.38 2.38 0 0 1 .51.06h.15s0-.07.06-.11a1 1 0 0 1 .17-.18 1.4 1.4 0 0 1 .44-.26 1.45 1.45 0 0 1 .17-.4l.14-.25.37-.09h.17a.88.88 0 0 1 .48.14.75.75 0 0 1 .45-.14.78.78 0 0 1 .78.74 16 16 0 0 1 -.05 3.4 17 17 0 0 0 -.11 2.86c0 1.11.1 1.81.15 2.43a18.42 18.42 0 0 1 0 3.87.79.79 0 0 1 -.78.75 1 1 0 0 1 -.47-.13.9.9 0 0 1 -.47.14.88.88 0 0 1 -.62-.27l-.12-.13v-.16c-.08-.31-.16-.63-.23-1a9 9 0 0 0 -.36-1.27 8.26 8.26 0 0 0 -.53-1.08c-.17-.31-.33-.62-.48-.94l-.29-.69a7.47 7.47 0 0 0 -.67-1.39 7.82 7.82 0 0 0 -1-1.14c-.18-.19-.37-.38-.55-.58l-.38-.44a8.87 8.87 0 0 0 -1.2-1.31 8.69 8.69 0 0 0 -1.49-.79l-.66-.3-.16-.08a10.16 10.16 0 0 0 -2.43-.92 8.54 8.54 0 0 0 -1.38-.09h-1.72a6.84 6.84 0 0 0 -2.22.24 7.4 7.4 0 0 0 -2 1.26l-.08.07a4.57 4.57 0 0 0 -1.73 2.18 9.14 9.14 0 0 0 -.26 2.82v.51a7.19 7.19 0 0 0 .15 2 3.5 3.5 0 0 0 1.29 1.67c.17.14.34.28.5.43a7.71 7.71 0 0 0 1.23.9 7.38 7.38 0 0 0 1.33.49l.75.23a18.54 18.54 0 0 1 1.76.7 16.14 16.14 0 0 0 1.65.66 16.92 16.92 0 0 0 1.7.5c.46.12.92.23 1.82.54a5.28 5.28 0 0 1 .83.39 4.09 4.09 0 0 0 .59.3 5.5 5.5 0 0 0 .58.16 5.56 5.56 0 0 1 .94.29 5.08 5.08 0 0 1 1.1.68c.15.11.3.23.45.33l.48.28a5.56 5.56 0 0 1 1.08.71 5.64 5.64 0 0 1 .94 1.21l.29.43c.1.15.21.29.32.43a6.12 6.12 0 0 1 .81 1.25 7.87 7.87 0 0 1 .54 2.09l.07.48c0 .2.07.4.11.61a10.18 10.18 0 0 1 .24 1.94 8.74 8.74 0 0 1 -.29 2c0 .18-.09.36-.12.53s-.07.35-.1.52a8.28 8.28 0 0 1 -.54 1.94 8.08 8.08 0 0 1 -1 1.55c-.12.16-.25.32-.36.48s-.23.33-.34.5a8.43 8.43 0 0 1 -1.18 1.45 8.54 8.54 0 0 1 -1.62 1.12l-.5.29-.5.32a8.76 8.76 0 0 1 -1.69.92 9.54 9.54 0 0 1 -2.06.46l-.63.1-.65.12a10.26 10.26 0 0 1 -2.05.21z"/><path d="m142.55 49.4c-1.12 0-2 0-2.86-.11-1.14-.07-2.43-.15-4.64-.15s-3.49.08-4.63.15c-.89.06-1.74.11-2.86.11-.91 0-2 0-3.22-.11a.83.83 0 0 1 -.67-.39.92.92 0 0 1 0-.92s0 0 0 0v-.1a1 1 0 0 1 -.07-.9.83.83 0 0 1 .63-.45 6.22 6.22 0 0 1 1.13-.12 5.15 5.15 0 0 1 1.05.12 6.35 6.35 0 0 0 1.38.14 5.39 5.39 0 0 1 2 .46 4.12 4.12 0 0 0 .62.21 1 1 0 0 0 .05-.19 28.79 28.79 0 0 0 .53-10.4 67.36 67.36 0 0 1 -.39-7.27c0-3.25.11-5.37.2-7.08a52.24 52.24 0 0 0 -.32-10.4 3.56 3.56 0 0 1 -1.21.26 2 2 0 0 0 -.67.11 2.12 2.12 0 0 1 -.74.14 2.58 2.58 0 0 1 -.78-.14.87.87 0 0 1 -.55-.48 1 1 0 0 1 .11-.86v-.05a1 1 0 0 1 0-.93.82.82 0 0 1 .65-.41c.69-.07 1.28-.11 1.79-.11a12.47 12.47 0 0 1 1.61.11 19.13 19.13 0 0 0 2.47.15 7 7 0 0 0 2.62-.79 5.13 5.13 0 0 1 1.95-.57c.9 0 1.54.57 1.89 1.7 1.75 5.56 1.28 8 .68 11a36.39 36.39 0 0 0 -.79 7.63 68.49 68.49 0 0 1 -.4 7.51 31.28 31.28 0 0 0 .54 10.79 1.27 1.27 0 0 0 0 .18 3.78 3.78 0 0 0 .62-.21 5.61 5.61 0 0 1 2-.46 6.35 6.35 0 0 0 1.38-.14 5 5 0 0 1 1-.12 6.32 6.32 0 0 1 1.14.12.79.79 0 0 1 .61.44 1 1 0 0 1 -.07.9v.06.07a.92.92 0 0 1 0 .94.83.83 0 0 1 -.67.39c-1.15.13-2.2.17-3.11.17z"/></g><g fill="#6e2d51"><path d="m.86 46.1h6.84v-35.63h-6.84v-1.25h14.3v9h.18a18.82 18.82 0 0 1 1.16-3 12.82 12.82 0 0 1 2.22-3.24 12.67 12.67 0 0 1 3.42-2.63 10.18 10.18 0 0 1 4.86-1.11 8.83 8.83 0 0 1 3.56.67 7.86 7.86 0 0 1 2.44 1.69 6.27 6.27 0 0 1 1.45 2.4 8.29 8.29 0 0 1 .44 2.66c0 2-.44 3.26-1.33 3.91a5.08 5.08 0 0 1 -3.11 1q-3.91 0-3.91-2.49a3.85 3.85 0 0 1 .18-1.29c.12-.32.25-.65.4-1a9.59 9.59 0 0 0 .4-1.12 6.73 6.73 0 0 0 .17-1.77c0-1.9-1-2.85-3.11-2.85a5.55 5.55 0 0 0 -3 1.07 11.26 11.26 0 0 0 -3 3.11 19.44 19.44 0 0 0 -2.31 4.93 21.29 21.29 0 0 0 -.94 6.62v20.32h7.73v1.25h-22.2z"/><path d="m29.74 28.33a17.37 17.37 0 0 1 1.91-8.08 22.48 22.48 0 0 1 11.55-10.67 18.14 18.14 0 0 1 14.49 0 22.52 22.52 0 0 1 6.66 4.22 22.23 22.23 0 0 1 4.89 6.45 17.49 17.49 0 0 1 1.91 8.08 17.91 17.91 0 0 1 -1.77 7.86 22.31 22.31 0 0 1 -4.67 6.45 22 22 0 0 1 -6.62 4.36 19.06 19.06 0 0 1 -15.29 0 21.94 21.94 0 0 1 -11.28-10.8 17.78 17.78 0 0 1 -1.78-7.86m8.89 0a41.28 41.28 0 0 0 1 10 15.31 15.31 0 0 0 2.58 5.73 7.37 7.37 0 0 0 3.73 2.62 16.64 16.64 0 0 0 9.07 0 7.37 7.37 0 0 0 3.73-2.62 15.47 15.47 0 0 0 2.58-5.73 41.28 41.28 0 0 0 1-10 46.66 46.66 0 0 0 -.71-8.93 16.83 16.83 0 0 0 -2.17-5.87 8.41 8.41 0 0 0 -3.69-3.24 13 13 0 0 0 -5.24-1 13 13 0 0 0 -5.25 1 8.41 8.41 0 0 0 -3.69 3.24 16.83 16.83 0 0 0 -2.17 5.87 46.66 46.66 0 0 0 -.71 8.93"/><path d="m70.26 34.91h1a33.4 33.4 0 0 0 1.6 4.31 15.26 15.26 0 0 0 2.62 4 12.66 12.66 0 0 0 9.82 4.13 8 8 0 0 0 5.07-1.74q2.22-1.72 2.22-5.64c0-2.25-.58-3.84-1.73-4.75a13.56 13.56 0 0 0 -4-2.18l-6.93-2.4c-.93-.3-1.93-.64-2.93-1.11a10.54 10.54 0 0 1 -2.88-1.87 9.07 9.07 0 0 1 -2.18-3.06 11.79 11.79 0 0 1 -.85-4.8 11 11 0 0 1 1-4.62 11.8 11.8 0 0 1 6.66-6.18 14.4 14.4 0 0 1 5.11-.88 12.78 12.78 0 0 1 3.14.26c.8.21 1.5.41 2.09.62s1.13.42 1.6.62a4.18 4.18 0 0 0 1.69.31 1.53 1.53 0 0 0 1.42-.71h1v10.13h-1a35.3 35.3 0 0 0 -1.42-3.77 15 15 0 0 0 -1.91-3.25 7.83 7.83 0 0 0 -2.75-2.22 8.83 8.83 0 0 0 -3.87-.8 10.27 10.27 0 0 0 -6.62 1.91 6.26 6.26 0 0 0 -2.36 5.11 5 5 0 0 0 2 4.31 20.82 20.82 0 0 0 5.91 2.71l6.49 2.14a18.46 18.46 0 0 1 6.84 3.91 8.55 8.55 0 0 1 2.68 6.6 12.51 12.51 0 0 1 -.93 4.71 11.54 11.54 0 0 1 -2.76 4 14 14 0 0 1 -4.44 2.8 16.05 16.05 0 0 1 -6 1.06 15.09 15.09 0 0 1 -3.6-.4c-1.1-.27-2.1-.55-3-.84s-1.76-.58-2.53-.85a6.74 6.74 0 0 0 -2.14-.4 2.13 2.13 0 0 0 -1.42.4 3.69 3.69 0 0 0 -.71.85h-1z"/><path d="m124.39 21.75h-1a33.4 33.4 0 0 0 -1.6-4.31 15.26 15.26 0 0 0 -2.62-4 13 13 0 0 0 -4-3 13.24 13.24 0 0 0 -5.78-1.16 8 8 0 0 0 -5.07 1.74q-2.22 1.72-2.22 5.64 0 3.38 1.74 4.75a13.38 13.38 0 0 0 4 2.18l6.93 2.4c.89.29 1.85.66 2.89 1.11a10.36 10.36 0 0 1 2.91 1.9 9 9 0 0 1 2.17 3.06 11.59 11.59 0 0 1 .85 4.8 11 11 0 0 1 -1 4.62 12.09 12.09 0 0 1 -2.59 3.74 12.22 12.22 0 0 1 -4 2.49 14.62 14.62 0 0 1 -5.11.88 12.83 12.83 0 0 1 -3.15-.31c-.8-.21-1.5-.41-2.09-.62s-1.12-.42-1.6-.63a4.33 4.33 0 0 0 -1.69-.3 1.55 1.55 0 0 0 -1.42.7h-1v-10.12h1a40.19 40.19 0 0 0 1.42 3.77 15.62 15.62 0 0 0 1.91 3.25 7.88 7.88 0 0 0 2.76 2.22 8.75 8.75 0 0 0 3.86.8 10.26 10.26 0 0 0 6.62-1.91 6.27 6.27 0 0 0 2.36-5.12 5 5 0 0 0 -2-4.3 20.81 20.81 0 0 0 -5.91-2.72l-6.49-2.13a18.76 18.76 0 0 1 -6.84-3.91 8.55 8.55 0 0 1 -2.67-6.57 12.33 12.33 0 0 1 .84-4.69 11.39 11.39 0 0 1 2.75-4 14.09 14.09 0 0 1 4.45-2.87 16.05 16.05 0 0 1 6-1.06 15 15 0 0 1 3.6.4c1.1.27 2.11.55 3 .84l2.54.84a6.49 6.49 0 0 0 2.13.41 2.06 2.06 0 0 0 1.42-.41 3.45 3.45 0 0 0 .71-.84h1z"/><path d="m124.39 46.1h6.84v-35.63h-3.92v-1.25h11.56v36.88h6.85v1.25h-21.33z"/></g><g fill="#231f20" opacity=".2"><path d="m132.14 4.07a2.9 2.9 0 0 1 .23-1.07 2.93 2.93 0 0 1 .63-1 3.05 3.05 0 0 1 .95-.62 2.94 2.94 0 0 1 1.11-.23 2.9 2.9 0 0 1 1.11.23 3.1 3.1 0 0 1 1 .62 3.17 3.17 0 0 1 .62 1 3 3 0 0 1 .21 1.07 2.9 2.9 0 0 1 -.23 1.11 3.05 3.05 0 0 1 -.62 1 2.77 2.77 0 0 1 -1 .62 2.9 2.9 0 0 1 -1.11.24 2.94 2.94 0 0 1 -1.11-.24 2.74 2.74 0 0 1 -.95-.62 2.89 2.89 0 0 1 -.62-1 2.9 2.9 0 0 1 -.23-1.11"/><path d="m132.14 4.07a2.9 2.9 0 0 1 .23-1.07 2.93 2.93 0 0 1 .63-1 3.05 3.05 0 0 1 .95-.62 2.94 2.94 0 0 1 1.11-.23 2.9 2.9 0 0 1 1.11.23 3.1 3.1 0 0 1 1 .62 3.17 3.17 0 0 1 .62 1 3 3 0 0 1 .21 1.07 2.9 2.9 0 0 1 -.23 1.11 3.05 3.05 0 0 1 -.62 1 2.77 2.77 0 0 1 -1 .62 2.9 2.9 0 0 1 -1.11.24 2.94 2.94 0 0 1 -1.11-.24 2.74 2.74 0 0 1 -.95-.62 2.89 2.89 0 0 1 -.62-1 2.9 2.9 0 0 1 -.23-1.11"/></g><path d="m132.15 2.91a2.79 2.79 0 0 1 .85-2.06 2.91 2.91 0 0 1 4.11 0 2.79 2.79 0 0 1 .89 2.06 2.81 2.81 0 0 1 -.89 2.09 2.91 2.91 0 0 1 -4.11 0 2.81 2.81 0 0 1 -.85-2.06" fill="#f175ab"/></svg>